<svg width="480" height="130" enable-background="new 0 0 717.17 540" version="1.1" viewBox="0 0 480 130" xml:space="preserve" xmlns="http://www.w3.org/2000/svg"><g transform="translate(10.042)" stroke-width=".70994"><path d="m59.543 20 39.544 39.528-39.5 39.514-0.017748-18.465 21.05-21.05-21.05-21.049z" fill="#4bb07b"/><path d="m38.468 59.527 21.102-21.049-0.026268-18.478-39.543 39.528 39.587 39.514-0.017748-18.465z" fill="#24425d"/><path d="m91.081 99.275-0.017748-18.466 21.05-21.05-21.05-21.049-0.025558-18.478 39.542 39.528z" fill="#4bb07b"/></g><g transform="scale(.95898 1.0428)" fill="#4bb07b" stroke-width=".95898" aria-label="CAST"><path d="m346.99 74.884q-4.2639 2.0641-11.135 2.0641-8.9624 0-14.095-5.2688-5.133-5.2688-5.133-14.041 0-9.3426 5.7576-15.155 5.7848-5.812 14.992-5.812 5.7033 0 9.6142 1.4394v8.4464q-3.9108-2.3356-8.908-2.3356-5.4861 0-8.8537 3.4492-3.3677 3.4492-3.3677 9.3426 0 5.649 3.1776 9.0167 3.1776 3.3405 8.555 3.3405 5.133 0 9.3969-2.4986z"/><path d="m387.03 76.269h-9.5599l-2.7702-8.6636h-13.851l-2.743 8.6636h-9.5055l14.177-38.946h10.402zm-14.34-15.399-4.1824-13.09q-0.4617-1.4666-0.65181-3.5035h-0.21727q-0.13579 1.711-0.67897 3.3948l-4.2368 13.199z"/><path d="m389.1 74.775v-8.6908q2.3628 1.9826 5.133 2.9875 2.7702 0.97771 5.5947 0.97771 1.6567 0 2.8788-0.29874 1.2493-0.29875 2.0641-0.81476 0.84192-0.54317 1.2493-1.2493 0.40738-0.73328 0.40738-1.5752 0-1.1407-0.6518-2.0369-0.65181-0.89624-1.7925-1.6567-1.1135-0.76044-2.6616-1.4666t-3.3405-1.4394q-4.5627-1.9011-6.8168-4.6441-2.227-2.743-2.227-6.6267 0-3.0418 1.2221-5.2145 1.2221-2.1999 3.3134-3.6121 2.1184-1.4123 4.8886-2.0641 2.7702-0.67897 5.8663-0.67897 3.0418 0 5.3774 0.38022 2.3628 0.35306 4.3454 1.1135v8.1204q-0.97771-0.67897-2.1455-1.195-1.1407-0.51602-2.3628-0.84192-1.2221-0.35306-2.4443-0.51602-1.195-0.16295-2.2813-0.16295-1.4937 0-2.7159 0.29875-1.2221 0.27159-2.0641 0.7876-0.84192 0.51602-1.3036 1.2493-0.4617 0.70613-0.4617 1.6024 0 0.97771 0.51602 1.7653 0.51601 0.76044 1.4666 1.4666 0.95055 0.67897 2.3085 1.3579 1.3579 0.65181 3.0689 1.3579 2.3356 0.97771 4.1824 2.0912 1.8739 1.0863 3.2047 2.4714 1.3308 1.3851 2.0369 3.1776 0.70613 1.7653 0.70613 4.1281 0 3.259-1.2493 5.4861-1.2221 2.1999-3.3405 3.5849-2.1184 1.3579-4.9429 1.9554-2.7974 0.59749-5.9206 0.59749-3.2047 0-6.1107-0.54317-2.8788-0.54317-4.9972-1.6295z"/><path d="m448.41 44.466h-11.108v31.803h-8.7994v-31.803h-11.054v-7.1427h30.961z"/></g><g transform="scale(.95898 1.0428)" fill="#24425d" stroke-width=".95898" aria-label="OPEN"><path d="m189.64 76.948q-8.3649 0-13.634-5.4317-5.2688-5.4589-5.2688-14.204 0-9.234 5.3503-14.937t14.177-5.7033q8.3377 0 13.471 5.4589 5.1602 5.4589 5.1602 14.394 0 9.1796-5.3503 14.801-5.3231 5.6218-13.905 5.6218zm0.38023-32.726q-4.617 0-7.3328 3.4763-2.7159 3.4492-2.7159 9.1525 0 5.7848 2.7159 9.1525 2.7159 3.3677 7.1156 3.3677 4.5355 0 7.197-3.259 2.6616-3.2862 2.6616-9.0982 0-6.0564-2.5801-9.4241-2.5801-3.3677-7.0613-3.3677z"/><path d="m223.13 62.852v13.416h-8.7723v-38.946h13.742q14.72 0 14.72 12.412 0 5.8663-4.2368 9.5055-4.2096 3.6121-11.271 3.6121zm0-18.794v12.14h3.4492q7.0069 0 7.0069-6.1379 0-6.0021-7.0069-6.0021z"/><path d="m270.88 76.269h-23.356v-38.946h22.46v7.1427h-13.688v8.6636h12.737v7.1156h-12.737v8.9081h14.584z"/><path d="m311.16 76.269h-8.8537l-16.051-24.47q-1.4123-2.1455-1.9554-3.2319h-0.10863q0.21727 2.0641 0.21727 6.3008v21.401h-8.2834v-38.946h9.4512l15.453 23.71q1.0592 1.6024 1.9554 3.1776h0.10863q-0.21727-1.3579-0.21727-5.3503v-21.537h8.2834z"/></g><g fill="#3d3d3d" aria-label="EXPLORE"><path d="m349.98 109.15h-10.885v-20.539h10.413v2.1771h-8.0065v6.832h7.4193v2.1771h-7.4193v7.1758h8.4792z"/><path d="m368.11 109.15h-2.9362l-4.7266-7.8633q-0.21484-0.35808-0.47265-1.0312h-0.0573l-0.50131 1.0312-4.8698 7.8633h-2.9219l6.8607-10.327-6.345-10.212h2.9648l4.1966 7.2187q0.40104 0.6875 0.73047 1.4466h0.0573q0.41536-0.8737 0.80208-1.5039l4.3685-7.1614h2.75l-6.4453 10.184z"/><path d="m383.79 94.745q0 2.9792-2.0625 4.8125-2.0482 1.819-5.3854 1.819h-2.707v7.7773h-2.4062v-20.539h5.6432q3.2943 0 5.099 1.6185 1.819 1.6042 1.819 4.5117zm-2.5208 0.12891q0-4.082-4.8125-4.082h-2.8216v8.4219h2.5208q2.4779 0 3.7956-1.1172 1.3177-1.1315 1.3177-3.2227z"/><path d="m398.32 109.15h-10.656v-20.539h2.4062v18.362h8.25z"/><path d="m418.55 98.627q0 3.2799-1.2031 5.7578-1.1888 2.4635-3.4375 3.7956-2.2344 1.332-5.1562 1.332-2.8216 0-5.0273-1.2891-2.1914-1.3034-3.3945-3.681-1.2031-2.3919-1.2031-5.4141 0-3.2513 1.2174-5.7292 1.2174-2.4779 3.4948-3.7956 2.2773-1.332 5.2708-1.332 2.7357 0 4.8984 1.3034 2.1771 1.3034 3.3516 3.6667 1.1888 2.3633 1.1888 5.3854zm-2.5208 0.3151q0-4.0104-1.8763-6.2591-1.8763-2.2487-5.2279-2.2487-2.1055 0-3.7812 1.0742-1.6614 1.0599-2.5781 3.0221-0.91666 1.9622-0.91666 4.3828 0 2.4635 0.87369 4.3971 0.88802 1.9193 2.5208 2.9792 1.6328 1.0456 3.7096 1.0456 3.4088 0 5.3424-2.2344t1.9336-6.1588z"/><path d="m435.8 109.15h-2.8789l-2.6927-6.1875q-1.1172-2.5495-3.1367-2.5495h-2.0911v8.737h-2.4062v-20.539h6.1302q2.9362 0 4.5976 1.4753 1.6615 1.4609 1.6615 3.9818 0 2.1914-1.2604 3.7096-1.2461 1.5182-3.3229 1.9909v0.05729q1.1602 0.41536 2.1198 2.4349zm-3.3372-14.867q0-1.6471-1.0742-2.5638-1.0599-0.93099-3.0938-0.93099h-3.2943v7.4479h3.1797q1.905 0 3.0938-1.1029 1.1888-1.1029 1.1888-2.8503z"/><path d="m450.35 109.15h-10.885v-20.539h10.413v2.1771h-8.0065v6.832h7.4193v2.1771h-7.4193v7.1758h8.4792z"/></g></svg>
